<svg xmlns="http://www.w3.org/2000/svg" viewBox="0 0 64 64" aria-label="Dynamo">
  <g fill="#E0A05F">
    <path d="M10 13 28 8c3-1 6 1 7 4l4 16-15 8-14-8c-3-2-4-6-2-9z"/>
    <path d="M37 12 54 22c3 2 4 5 3 8l-5 16-16-2-8-15 9-17z" opacity=".9"/>
    <path d="M11 34 25 28l12 7-2 18c0 4-4 6-7 5L12 51c-3-1-5-5-4-8z" opacity=".8"/>
  </g>
  <path d="m29 22 9 5-8 5-9-5z" fill="#fff"/>
  <circle cx="22" cy="18" r="3.5" fill="#fff"/>
  <circle cx="48" cy="28" r="3.5" fill="#fff"/>
  <circle cx="25" cy="46" r="3.5" fill="#fff"/>
</svg>
